 <svg version="1.0" xmlns="http://www.w3.org/2000/svg"  width="300.000000pt" height="300.000000pt" viewBox="0 0 300.000000 300.000000"  preserveAspectRatio="xMidYMid meet">  <g transform="translate(0.000000,300.000000) scale(0.100000,-0.100000)" fill="#000000" stroke="none"> <path d="M0 1500 l0 -1500 205 0 205 0 1 43 c0 23 4 62 8 87 8 40 9 36 12 -45 l3 -90 6 100 c3 55 7 80 8 55 1 -25 5 -69 8 -97 l7 -53 1077 0 1077 0 -3 142 c-1 79 1 168 5 198 6 39 9 -4 10 -142 l1 -198 185 0 185 0 0 1297 c0 1016 -3 1300 -13 1312 -10 12 -9 13 1 7 10 -6 12 32 10 186 l-3 193 -1497 3 -1498 2 0 -1500z m317 1378 c-3 -7 -5 -2 -5 12 0 14 2 19 5 13 2 -7 2 -19 0 -25z m2347 -188 c-3 -63 -8 -117 -10 -119 -2 -2 -3 74 -3 170 1 135 3 162 10 119 5 -30 6 -107 3 -170z m-30 70 c1 -66 -2 -124 -6 -126 -5 -3 -8 54 -7 126 0 72 3 129 6 127 2 -3 5 -60 7 -127z m-1686 79 c23 -11 64 -40 89 -65 l47 -45 89 -4 c99 -5 123 -16 106 -46 -8 -16 -21 -19 -83 -19 l-74 0 34 -92 c19 -51 40 -103 46 -115 6 -12 10 -33 11 -47 0 -14 3 -26 8 -26 5 0 9 -15 9 -34 0 -19 4 -38 10 -41 5 -3 8 -16 6 -28 -2 -12 0 -26 4 -32 4 -5 10 -32 13 -60 3 -27 10 -71 15 -96 6 -25 14 -93 17 -150 4 -57 8 -126 10 -154 2 -27 4 -64 4 -80 l1 -30 163 1 162 2 1 38 c0 22 4 68 8 104 4 36 9 83 12 105 2 22 9 64 15 92 6 29 11 63 13 76 1 12 5 27 8 32 3 6 9 26 13 45 24 120 100 314 137 352 31 31 72 45 128 43 67 -2 125 -18 149 -39 10 -9 21 -13 24 -9 4 3 7 1 7 -5 0 -7 9 -12 20 -12 11 0 20 -4 20 -10 0 -5 5 -10 11 -10 34 0 249 -206 249 -238 0 -7 4 -11 9 -7 5 3 13 -5 17 -17 3 -12 13 -28 20 -36 8 -7 14 -20 14 -28 0 -8 5 -14 10 -14 6 0 10 -6 10 -12 0 -7 6 -24 13 -38 28 -54 39 -117 29 -164 l-10 -46 74 0 c40 0 76 -4 79 -10 4 -7 -57 -10 -174 -10 -114 0 -181 -4 -181 -10 0 -6 68 -10 183 -10 118 0 177 -4 167 -10 -8 -5 -33 -10 -55 -10 -261 -6 -278 -5 -307 24 -13 14 -30 26 -38 28 -8 2 -21 9 -28 16 -8 7 -27 16 -43 19 -16 3 -29 9 -29 14 0 5 -7 9 -17 9 -9 0 -14 -3 -10 -6 5 -6 -20 -57 -66 -132 -22 -38 -16 -50 29 -58 48 -8 56 -13 52 -36 -3 -20 -11 -24 -66 -30 -87 -10 -91 -12 -144 -78 l-47 -59 50 -48 c54 -52 82 -61 192 -62 31 -1 57 -5 57 -11 0 -6 -46 -10 -117 -10 l-117 0 -51 49 c-27 27 -75 66 -105 86 -51 33 -53 36 -23 32 23 -4 50 -25 103 -81 40 -42 78 -76 84 -76 6 1 -20 30 -58 65 -37 36 -61 65 -53 65 14 0 107 106 107 122 0 4 -21 9 -47 11 -32 2 -17 4 42 7 73 2 83 4 55 11 -25 6 -10 7 48 4 45 -2 82 1 82 6 0 5 -28 10 -62 10 -50 1 -57 3 -33 9 23 6 10 8 -50 10 -44 2 -66 5 -50 7 17 3 41 17 54 31 l23 27 -16 -27 c-17 -29 -7 -39 13 -15 16 20 101 189 101 201 0 11 -79 61 -85 54 -15 -17 -52 -107 -47 -113 4 -5 2 -5 -5 -1 -11 6 -30 -29 -25 -46 1 -5 -3 -8 -10 -8 -6 0 -8 -3 -5 -7 8 -8 -39 -93 -62 -111 -9 -7 -17 -17 -17 -22 -1 -6 -2 -14 -3 -19 -2 -18 -77 -91 -93 -91 -9 0 -19 -4 -22 -9 -6 -9 -84 16 -146 48 -29 15 -58 18 -165 16 -118 -1 -138 -4 -225 -34 -52 -18 -127 -52 -166 -76 -90 -57 -190 -161 -234 -248 l-35 -67 -130 1 c-137 1 -132 11 11 25 l70 6 29 52 c37 66 103 148 137 172 16 11 28 22 28 26 0 3 -29 10 -65 13 -72 8 -95 24 -70 49 18 17 48 19 110 7 39 -9 39 -9 -20 -11 -104 -3 -110 -19 -7 -19 85 -1 94 -3 99 -21 3 -11 9 -17 14 -14 5 3 7 9 4 13 -4 7 86 63 100 61 18 -1 25 1 25 8 0 4 -21 6 -47 4 l-48 -3 -54 92 c-57 98 -151 305 -170 377 l-12 42 -50 0 c-49 0 -49 0 -43 -27 22 -90 118 -298 188 -407 29 -45 41 -56 63 -57 16 0 37 -4 48 -9 31 -13 -47 -11 -130 4 -54 9 -65 14 -47 20 22 7 29 21 15 28 -20 8 -131 235 -163 331 -12 37 -33 81 -47 97 -14 17 -22 37 -19 46 4 11 -4 19 -28 29 -35 15 -56 35 -37 35 6 0 11 -4 11 -9 0 -5 24 -11 54 -13 31 -2 52 1 49 6 -4 5 -1 6 5 2 7 -4 12 -14 12 -22 0 -8 -4 -12 -10 -9 -5 3 -10 1 -10 -4 0 -6 8 -12 18 -12 9 -1 -1 -5 -23 -9 -45 -8 220 -14 425 -10 117 2 126 1 126 -16 1 -11 6 -71 12 -134 17 -169 18 -200 10 -200 -5 0 -8 23 -8 50 0 53 -17 228 -26 268 -4 21 -9 23 -57 20 -50 -3 -52 -4 -54 -33 l-2 -30 8 30 c12 51 42 -213 39 -345 -3 -127 -6 -122 65 -98 50 17 48 38 -3 38 -22 0 -40 5 -40 10 0 23 86 6 94 -19 3 -9 3 56 1 144 -8 296 -74 631 -162 822 -15 32 -29 62 -32 67 -2 5 36 7 92 3 59 -4 99 -3 102 3 4 6 -33 10 -97 11 -57 1 -112 4 -124 7 -12 4 -45 29 -75 56 -30 27 -43 43 -31 37 13 -7 42 -29 65 -49 33 -29 38 -32 26 -12 -9 14 -36 39 -60 55 -40 28 -52 30 -119 29 -84 -1 -106 -9 -144 -55 -42 -50 -22 -46 27 5 24 25 50 46 58 46 7 0 -1 -10 -18 -22 -17 -13 -39 -35 -48 -50 -15 -26 -21 -28 -88 -30 l-72 -1 55 -7 55 -7 -69 -1 c-38 -1 -66 -5 -63 -9 4 -3 39 -5 78 -4 71 2 72 2 64 -21 -12 -39 -18 -329 -7 -386 l9 -53 -41 4 c-22 2 -52 0 -66 -4 -17 -5 -4 -7 43 -8 37 -1 67 -5 67 -11 0 -6 -28 -10 -64 -10 -69 0 -84 11 -60 45 8 10 14 15 14 11 0 -5 6 -3 13 3 8 6 17 8 20 4 4 -3 4 56 1 133 -4 82 -2 162 4 194 6 30 7 58 4 62 -4 4 -51 8 -104 10 l-98 3 -1 -35 -2 -35 -6 35 c-5 30 -10 35 -33 34 -19 -1 -29 5 -33 17 -4 11 -12 19 -18 20 -7 0 -3 4 8 9 11 4 61 8 110 9 60 0 104 6 129 16 22 9 48 14 59 11 14 -3 31 7 61 40 45 49 121 83 171 77 17 -2 49 -13 73 -24z m-521 -81 c-2 -18 -4 -4 -4 32 0 36 2 50 4 33 2 -18 2 -48 0 -65z m20 -10 c-2 -13 -4 -3 -4 22 0 25 2 35 4 23 2 -13 2 -33 0 -45z m446 -5 c-7 -2 -19 -2 -25 0 -7 3 -2 5 12 5 14 0 19 -2 13 -5z m-576 -39 c-3 -3 -12 -4 -19 -1 -8 3 -5 6 6 6 11 1 17 -2 13 -5z m792 -107 c46 -112 131 -460 116 -475 -6 -6 -8 3 -35 143 -24 127 -75 295 -109 363 -23 45 -26 56 -12 48 5 -4 23 -39 40 -79z m-189 8 c35 -18 74 -71 64 -86 -4 -8 -3 -9 5 -5 18 11 59 -92 97 -244 19 -74 34 -138 34 -142 0 -5 -69 -8 -153 -8 l-152 0 -14 68 c-20 103 -25 239 -11 307 9 44 21 68 45 92 37 37 45 39 85 18z m-101 1 c-10 -9 -76 -13 -94 -6 -14 6 -2 9 39 9 33 1 57 -1 55 -3z m241 -4 c0 -9 -87 -8 -97 1 -3 4 17 7 45 7 29 0 52 -4 52 -8z m-297 -49 c-13 -2 -33 -2 -45 0 -13 2 -3 4 22 4 25 0 35 -2 23 -4z m310 0 c-13 -2 -35 -2 -50 0 -16 2 -5 4 22 4 28 0 40 -2 28 -4z m-320 -40 c-7 -2 -19 -2 -25 0 -7 3 -2 5 12 5 14 0 19 -2 13 -5z m330 0 c-13 -2 -33 -2 -45 0 -13 2 -3 4 22 4 25 0 35 -2 23 -4z m-335 -70 c-10 -2 -28 -2 -40 0 -13 2 -5 4 17 4 22 1 32 -1 23 -4z m1879 -250 c-2 -16 -4 -5 -4 22 0 28 2 40 4 28 2 -13 2 -35 0 -50z m30 0 c-2 -16 -4 -5 -4 22 0 28 2 40 4 28 2 -13 2 -35 0 -50z m-1894 10 c-7 -2 -19 -2 -25 0 -7 3 -2 5 12 5 14 0 19 -2 13 -5z m-100 -20 c-13 -2 -33 -2 -45 0 -13 2 -3 4 22 4 25 0 35 -2 23 -4z m530 -110 c-7 -2 -21 -2 -30 0 -10 3 -4 5 12 5 17 0 24 -2 18 -5z m914 -158 c23 -24 11 -26 -17 -5 -14 11 -19 20 -12 20 7 0 20 -7 29 -15z m-19 -90 c-6 -14 -13 -23 -15 -21 -5 5 15 46 22 46 3 0 -1 -11 -7 -25z m-33 4 c11 -17 2 -18 -19 -3 -17 12 -17 14 -4 14 9 0 20 -5 23 -11z m-1748 -91 c-3 -7 -5 -2 -5 12 0 14 2 19 5 13 2 -7 2 -19 0 -25z m963 -30 c0 -38 -5 -34 -13 10 -4 21 -3 31 3 27 6 -3 10 -20 10 -37z m-337 25 c-7 -2 -19 -2 -25 0 -7 3 -2 5 12 5 14 0 19 -2 13 -5z m295 0 c-10 -2 -26 -2 -35 0 -10 3 -2 5 17 5 19 0 27 -2 18 -5z m-61 -80 c-2 -16 -4 -5 -4 22 0 28 2 40 4 28 2 -13 2 -35 0 -50z m871 60 c-15 -2 -42 -2 -60 0 -18 2 -6 4 27 4 33 0 48 -2 33 -4z m-75 -20 c-7 -2 -19 -2 -25 0 -7 3 -2 5 12 5 14 0 19 -2 13 -5z m-973 -23 c0 -6 -11 -8 -27 -4 -40 10 -41 14 -5 14 18 0 32 -5 32 -10z m-683 -32 c-3 -8 -6 -5 -6 6 -1 11 2 17 5 13 3 -3 4 -12 1 -19z m688 -8 c-3 -5 -11 -10 -16 -10 -6 0 -7 5 -4 10 3 6 11 10 16 10 6 0 7 -4 4 -10z m945 6 c0 -3 -4 -8 -10 -11 -5 -3 -10 -1 -10 4 0 6 5 11 10 11 6 0 10 -2 10 -4z m11 -34 c-5 -9 -19 -26 -32 -37 -19 -16 -18 -13 5 18 30 39 43 49 27 19z m-1101 -12 c0 -5 -5 -10 -11 -10 -5 0 -7 5 -4 10 3 6 8 10 11 10 2 0 4 -4 4 -10z m683 3 c-13 -2 -33 -2 -45 0 -13 2 -3 4 22 4 25 0 35 -2 23 -4z m-833 -34 c0 -4 -15 -10 -32 -12 -31 -4 -31 -4 6 -5 43 -2 42 -15 -2 -17 -39 -2 -56 17 -28 32 23 12 56 13 56 2z m-381 -299 c2 30 3 97 4 147 1 51 5 87 9 80 4 -6 8 -69 8 -139 0 -107 2 -126 15 -122 9 4 15 25 18 62 l3 57 2 -60 2 -60 69 1 c56 1 74 -2 90 -17 14 -13 22 -15 27 -8 5 8 36 10 103 5 53 -3 101 -7 106 -8 6 -1 -45 -4 -113 -7 -78 -4 -126 -11 -130 -18 -5 -8 -43 -13 -102 -15 l-95 -3 -6 -30 c-5 -24 -6 -21 -6 17 l0 47 106 4 c62 1 24 4 -91 5 -171 2 -197 4 -192 17 4 8 1 15 -5 15 -6 0 -11 -7 -11 -15 0 -11 -11 -15 -39 -15 -22 0 -42 4 -45 8 -2 4 7 7 22 7 15 -1 37 5 50 12 17 11 27 11 37 3 7 -6 39 -10 74 -8 l61 3 4 130 c7 213 10 220 16 30 3 -99 7 -155 9 -125z m1518 244 c-3 -3 -12 -4 -19 -1 -8 3 -5 6 6 6 11 1 17 -2 13 -5z m-734 -31 c-13 -2 -35 -2 -50 0 -16 2 -5 4 22 4 28 0 40 -2 28 -4z m794 1 c-3 -3 -12 -4 -19 -1 -8 3 -5 6 6 6 11 1 17 -2 13 -5z m-339 -11 c-32 -2 -86 -2 -120 0 -35 2 -9 3 57 3 66 0 94 -1 63 -3z m-429 -28 c-8 -7 -129 -9 -136 -2 -3 4 27 7 67 7 40 0 71 -2 69 -5z m799 -12 c-10 -2 -26 -2 -35 0 -10 3 -2 5 17 5 19 0 27 -2 18 -5z m302 -52 c-8 -6 -35 -11 -60 -11 -59 0 -77 -11 -55 -34 17 -17 31 -19 103 -16 24 1 50 -4 58 -10 19 -16 18 -49 -3 -72 -15 -17 -15 -18 13 -19 16 0 38 -4 49 -9 12 -5 -34 -9 -122 -9 -79 -1 -143 2 -143 7 0 4 17 7 37 7 21 0 54 2 73 6 l35 6 -37 2 c-77 2 -19 31 65 31 17 0 27 5 27 15 0 15 -28 17 -215 18 -33 0 -39 1 -17 4 38 5 39 8 8 53 l-23 35 111 3 c78 2 107 0 96 -7z m-1130 -97 c57 -39 49 -40 140 11 51 29 82 32 100 10 11 -13 8 -30 -20 -97 -33 -79 -33 -82 -15 -92 96 -53 137 -190 77 -257 -38 -43 -102 -46 -153 -8 -53 40 -54 40 -95 9 -53 -40 -84 -39 -123 5 -64 73 -61 149 9 220 l41 42 -31 64 c-32 69 -37 98 -18 117 18 18 32 15 88 -24z m615 0 l67 -36 42 30 c54 39 78 45 101 28 19 -14 19 -16 -13 -92 -18 -44 -32 -82 -32 -85 0 -3 18 -24 40 -47 64 -68 64 -156 -1 -221 -39 -39 -70 -39 -119 0 l-38 31 -52 -36 c-58 -40 -75 -43 -126 -21 -81 33 -81 161 0 241 22 23 47 43 54 45 9 3 5 22 -18 71 -59 131 -31 159 95 92z m1072 -71 c-2 -21 -4 -6 -4 32 0 39 2 55 4 38 2 -18 2 -50 0 -70z m20 0 c-2 -21 -4 -6 -4 32 0 39 2 55 4 38 2 -18 2 -50 0 -70z m60 15 c-2 -13 -4 -5 -4 17 -1 22 1 32 4 23 2 -10 2 -28 0 -40z m-2737 -45 c0 -15 -2 -15 -24 -7 -22 9 -20 20 4 20 11 0 20 -6 20 -13z m178 -36 c-1 -37 -2 -42 -5 -19 -5 38 -8 40 -83 46 -41 3 -57 0 -66 -12 -9 -12 -10 -11 -8 9 1 13 3 24 3 24 1 0 37 1 81 2 l80 3 -2 -53z m575 46 l-81 -4 -12 -52 c-6 -29 -14 -60 -16 -69 -4 -15 5 -18 73 -21 43 -1 9 -4 -75 -5 -108 -1 -151 -5 -146 -13 4 -7 -14 -10 -60 -7 -50 2 -65 0 -61 -9 3 -8 -5 -13 -23 -14 l-27 -1 25 -8 c22 -7 20 -8 -15 -9 -37 0 -39 1 -20 14 11 8 29 23 40 34 21 19 89 33 177 35 41 1 49 4 57 26 23 66 10 79 -74 78 -62 -1 -75 1 -75 12 0 9 131 16 315 16 l80 0 -82 -3z m1354 -5 c68 -2 123 -6 123 -9 0 -9 -27 -19 -51 -19 -11 0 -30 -7 -43 -15 -13 -9 -29 -14 -36 -13 -15 4 -20 -20 -10 -48 7 -19 19 -22 111 -28 127 -8 152 -23 109 -66 -11 -11 -33 -21 -48 -21 -15 0 -74 -2 -132 -3 l-105 -3 90 7 c80 7 74 7 -50 5 -77 -1 -127 0 -110 3 16 2 32 8 35 12 3 5 76 10 163 11 108 1 157 5 157 13 0 7 -37 12 -108 14 -59 1 -161 6 -227 11 l-120 8 93 2 c103 1 101 -2 77 79 l-16 52 -49 0 c-27 0 -52 5 -55 11 -5 7 7 9 36 5 24 -3 99 -7 166 -8z m-1299 -85 c-26 -2 -71 -2 -100 0 -29 2 -8 3 47 3 55 0 79 -1 53 -3z m1179 0 c-20 -2 -52 -2 -70 0 -17 2 0 4 38 4 39 0 53 -2 32 -4z m-1388 -109 c8 -8 -135 -3 -174 6 -26 5 -3 6 65 3 58 -3 107 -7 109 -9z m-10 -29 c2 -3 -17 -5 -43 -5 -26 0 -45 -4 -42 -9 3 -5 50 -7 103 -5 54 2 123 0 153 -5 50 -8 45 -9 -60 -11 -63 -2 -103 -5 -89 -7 25 -4 27 -8 32 -71 3 -37 16 -99 30 -137 20 -61 27 -70 50 -73 15 -2 34 2 44 8 15 10 14 11 -10 7 -15 -2 -30 0 -33 4 -5 9 11 13 31 9 6 -1 4 4 -2 11 -7 7 -13 20 -13 28 0 8 15 -6 33 -32 17 -25 39 -48 47 -51 8 -2 -47 -4 -122 -5 -79 -1 -138 -5 -138 -10 0 -6 -19 -12 -42 -14 -37 -3 -34 -4 17 -6 152 -6 173 -6 168 2 -2 4 0 7 6 7 5 0 13 -4 16 -10 3 -5 30 -10 58 -10 30 0 60 -7 71 -15 18 -13 -1 -15 -174 -15 -106 0 -191 -2 -189 -5 3 -2 22 -5 43 -7 20 -1 40 -6 42 -10 3 -4 31 -8 62 -9 56 -1 56 -1 17 -9 -64 -12 -184 -17 -178 -6 11 17 8 61 -5 75 -19 20 1 38 51 46 23 4 47 11 52 15 6 5 21 10 35 12 16 2 24 9 21 18 -2 8 -13 44 -24 80 -11 36 -22 88 -26 115 -6 50 -7 51 -40 50 -18 0 -39 4 -45 10 -6 7 -17 10 -24 7 -6 -2 -12 0 -12 5 0 4 -31 7 -69 5 -39 -1 -72 2 -76 8 -4 6 25 10 82 11 66 1 80 3 58 10 -19 5 -2 6 50 3 43 -3 81 -7 84 -9z m1314 8 c-7 -2 -21 -2 -30 0 -10 3 -4 5 12 5 17 0 24 -2 18 -5z m167 -27 c0 -3 -4 -8 -10 -11 -5 -3 -10 -1 -10 4 0 6 5 11 10 11 6 0 10 -2 10 -4z m133 -7 c-6 -6 -29 -13 -52 -16 -22 -3 -42 -10 -42 -14 -1 -5 -2 -12 -4 -16 -6 -21 -19 -119 -17 -127 2 -4 -2 -14 -8 -21 -7 -8 -17 -36 -25 -64 -15 -60 -11 -65 59 -76 62 -9 76 -14 76 -31 0 -18 -42 -47 -50 -34 -4 6 -71 10 -168 11 -106 0 -162 3 -162 10 0 7 60 9 185 6 103 -3 185 -1 185 4 0 5 -21 9 -47 9 -71 0 -153 12 -153 21 0 5 15 10 33 10 24 1 26 3 9 6 -17 3 -20 8 -13 16 21 26 60 166 67 240 l7 77 65 0 c47 0 63 -3 55 -11z m-200 -6 c-23 -2 -64 -2 -90 0 -26 2 -7 3 42 3 50 0 71 -1 48 -3z m-1203 -34 c0 -9 -140 -2 -149 7 -3 3 30 4 72 3 42 -1 77 -6 77 -10z m1228 4 c-21 -2 -55 -2 -75 0 -21 2 -4 4 37 4 41 0 58 -2 38 -4z m29 -35 c-3 -8 -6 -5 -6 6 -1 11 2 17 5 13 3 -3 4 -12 1 -19z m-1364 5 c-7 -2 -21 -2 -30 0 -10 3 -4 5 12 5 17 0 24 -2 18 -5z m1330 0 c-7 -2 -21 -2 -30 0 -10 3 -4 5 12 5 17 0 24 -2 18 -5z m-1310 -37 c6 -15 -1 -26 -16 -26 -6 0 -7 3 -3 7 3 4 -4 13 -16 20 l-23 12 26 1 c15 0 29 -6 32 -14z m1307 3 c12 -9 12 -10 -4 -5 -10 4 -26 1 -34 -6 -11 -9 -14 -9 -9 -1 5 7 -2 13 -20 16 -21 3 -18 4 12 5 22 1 47 -3 55 -9z m489 -24 c1 10 131 15 131 5 0 -4 16 -4 35 -2 21 3 35 0 35 -7 0 -7 -35 -11 -105 -11 -66 0 -105 -4 -105 -10 0 -7 31 -10 83 -9 115 1 127 0 127 -11 0 -5 -11 -10 -25 -10 -20 0 -25 -5 -26 -27 -2 -25 -2 -24 -9 7 -6 31 -8 27 -11 -30 l-3 -65 -3 57 -4 57 -72 3 c-62 3 -72 5 -69 21 2 12 -4 17 -20 18 l-23 2 23 4 c14 3 22 12 23 26 1 20 2 20 9 -3 4 -14 8 -20 9 -15z m-1451 18 c-10 -2 -26 -2 -35 0 -10 3 -2 5 17 5 19 0 27 -2 18 -5z m-202 -12 c-3 -5 -15 -7 -26 -4 -28 7 -25 13 6 13 14 0 23 -4 20 -9z m527 2 c-23 -2 -64 -2 -90 0 -26 2 -7 3 42 3 50 0 71 -1 48 -3z m270 0 c-13 -2 -35 -2 -50 0 -16 2 -5 4 22 4 28 0 40 -2 28 -4z m185 0 c-10 -2 -28 -2 -40 0 -13 2 -5 4 17 4 22 1 32 -1 23 -4z m568 -11 c15 -9 -11 -11 -111 -11 -116 1 -127 2 -100 14 36 16 182 13 211 -3z m-1646 -22 c-48 -6 -79 -2 -62 9 6 3 32 4 59 2 l48 -5 -45 -6z m1286 -7 c-10 -10 -19 5 -10 18 6 11 8 11 12 0 2 -7 1 -15 -2 -18z m-39 11 c-7 -7 -158 -6 -166 1 -2 3 35 5 84 5 49 0 86 -3 82 -6z m-384 -11 c-7 -2 -19 -2 -25 0 -7 3 -2 5 12 5 14 0 19 -2 13 -5z m125 0 c-21 -2 -55 -2 -75 0 -21 2 -4 4 37 4 41 0 58 -2 38 -4z m666 -2 c8 -12 -45 -21 -128 -21 -126 0 -130 15 -6 21 63 3 118 6 122 7 4 1 9 -2 12 -7z m-1714 -11 c0 -5 -8 -10 -17 -10 -15 0 -16 2 -3 10 19 12 20 12 20 0z m1135 -10 c25 -79 -162 -222 -327 -250 -99 -17 -299 -7 -402 19 -146 38 -225 85 -252 148 -16 36 -19 83 -6 83 5 0 46 -22 91 -49 45 -27 119 -62 164 -78 75 -26 94 -28 222 -28 224 0 333 31 436 124 29 28 57 50 61 51 4 0 9 -9 13 -20z m-1072 -4 c26 1 26 0 5 -3 -16 -2 -28 -8 -28 -14 0 -5 -6 -9 -14 -9 -10 0 -12 7 -8 22 3 12 7 18 9 12 2 -5 18 -9 36 -8z m562 0 c11 -2 -52 -3 -140 -3 -133 1 -144 2 -65 6 89 6 158 4 205 -3z m660 4 c-18 -5 -23 -8 -11 -9 11 0 17 -4 14 -7 -3 -3 -23 -2 -44 2 l-39 8 30 7 c17 4 41 7 55 7 22 0 22 -1 -5 -8z m-1022 -7 c-7 -2 -21 -2 -30 0 -10 3 -4 5 12 5 17 0 24 -2 18 -5z m472 2 c-23 -8 -85 -10 -85 -3 0 4 21 8 48 7 26 0 43 -2 37 -4z m243 -2 c-43 -2 -113 -2 -155 0 -43 1 -8 3 77 3 85 0 120 -2 78 -3z m272 -33 c-12 -7 -8 -10 14 -10 41 0 22 -14 -26 -19 -5 -1 -8 -9 -7 -18 0 -10 3 -13 5 -7 3 7 14 10 24 7 33 -9 23 -23 -16 -23 -20 0 -33 -4 -29 -10 3 -6 -1 -7 -10 -4 -14 6 -14 8 -1 23 8 9 19 28 25 44 6 15 16 27 23 27 9 0 8 -3 -2 -10z m-263 -6 c-3 -3 -12 -4 -19 -1 -8 3 -5 6 6 6 11 1 17 -2 13 -5z m-962 -14 c3 -5 1 -10 -4 -10 -6 0 -11 5 -11 10 0 6 2 10 4 10 3 0 8 -4 11 -10z m1932 -22 c-3 -8 -6 -5 -6 6 -1 11 2 17 5 13 3 -3 4 -12 1 -19z m-1430 -34 c-3 -3 -12 -4 -19 -1 -8 3 -5 6 6 6 11 1 17 -2 13 -5z m61 -1 c-10 -2 -26 -2 -35 0 -10 3 -2 5 17 5 19 0 27 -2 18 -5z m672 -34 c10 -5 -3 -8 -37 -9 -50 0 -63 7 -46 24 8 7 60 -2 83 -15z m160 -77 c0 -4 -16 -6 -36 -4 -27 3 -35 1 -29 -8 11 -18 -14 -30 -62 -30 -30 0 -43 -4 -43 -14 0 -8 -5 -16 -12 -18 -24 -8 5 -28 41 -28 25 0 44 -7 56 -20 18 -19 18 -22 2 -37 -14 -14 -38 -17 -132 -18 -99 -1 -119 -4 -143 -22 -15 -11 -37 -23 -50 -27 -12 -4 -22 -11 -22 -15 0 -4 -28 -16 -62 -26 -35 -10 -68 -22 -74 -27 -26 -19 -247 -29 -338 -15 -59 10 -172 43 -206 62 -91 49 -154 90 -197 129 l-50 45 -104 2 c-128 2 -181 8 -173 20 3 5 76 9 162 9 88 0 151 -4 144 -9 -10 -6 3 -23 49 -65 34 -31 66 -56 71 -56 5 0 -18 25 -52 56 -33 31 -59 59 -56 61 3 3 19 -11 36 -31 83 -94 251 -174 417 -198 151 -22 345 18 478 99 l60 36 118 -2 c76 -1 117 2 117 8 0 7 -34 12 -87 13 -127 2 -141 3 -149 11 -4 4 25 7 64 7 42 0 72 4 72 10 0 6 -10 8 -24 4 -14 -3 -30 -3 -36 1 -15 9 37 48 55 41 8 -3 15 -1 15 4 0 6 -7 10 -16 10 -8 0 -13 4 -9 10 3 5 -22 11 -62 13 -37 2 -11 3 60 2 125 -1 176 11 75 18 -34 2 -20 4 40 5 50 1 92 -2 92 -6z m-1170 -62 l54 -40 -50 1 c-43 1 -45 2 -19 9 24 6 26 8 7 9 -12 0 -21 7 -20 14 2 6 -3 11 -10 9 -8 -1 -11 2 -7 8 4 6 -14 10 -49 10 -30 0 -58 5 -61 10 -4 6 14 10 48 10 47 0 60 -5 107 -40z m918 23 c-15 -2 -42 -2 -60 0 -18 2 -6 4 27 4 33 0 48 -2 33 -4z m-614 -26 c-5 -15 -107 -17 -121 -4 -3 4 19 6 51 6 31 -1 60 1 63 5 10 10 13 7 7 -7z m-359 -7 c13 -5 14 -9 5 -9 -8 0 -24 4 -35 9 -13 5 -14 9 -5 9 8 0 24 -4 35 -9z m224 6 c-2 -2 -26 -6 -53 -9 -30 -3 -43 -1 -35 4 13 8 97 13 88 5z m737 -3 c-4 -5 -90 -8 -191 -8 -100 0 -178 3 -171 7 15 10 372 10 362 1z m-559 -9 c-3 -3 -12 -4 -19 -1 -8 3 -5 6 6 6 11 1 17 -2 13 -5z m40 0 c-3 -3 -12 -4 -19 -1 -8 3 -5 6 6 6 11 1 17 -2 13 -5z m-1158 -206 c-1 -122 -4 -178 -9 -153 -15 79 -11 345 6 345 2 0 3 -87 3 -192z m30 -10 c1 -93 -3 -148 -9 -148 -6 0 -10 65 -9 178 1 103 5 165 9 147 4 -16 8 -96 9 -177z m1051 187 c7 -9 8 -15 2 -15 -5 0 -12 7 -16 15 -3 8 -4 15 -2 15 2 0 9 -7 16 -15z m163 0 c-3 -9 -8 -14 -10 -11 -3 3 -2 9 2 15 9 16 15 13 8 -4z m340 8 c-13 -2 -33 -2 -45 0 -13 2 -3 4 22 4 25 0 35 -2 23 -4z m-724 -22 c10 -6 -1 -8 -30 -4 -24 3 -46 7 -48 9 -10 9 65 3 78 -5z m114 2 c-7 -2 -19 -2 -25 0 -7 3 -2 5 12 5 14 0 19 -2 13 -5z m573 -2 c-36 -4 -60 -11 -62 -19 -1 -7 0 -8 3 -2 2 5 26 10 51 9 l47 -1 -50 -12 c-27 -7 -74 -23 -103 -35 -29 -12 -51 -17 -47 -11 7 11 -71 3 -115 -12 -22 -7 -21 -7 8 -5 17 2 32 0 32 -4 0 -11 -189 -10 -210 1 -13 7 -21 7 -25 0 -4 -6 -11 -8 -16 -4 -5 3 -7 9 -4 13 5 9 -61 20 -124 22 l-36 1 37 9 c24 5 48 5 65 -2 55 -21 224 -23 327 -5 53 10 96 22 96 27 0 5 8 9 18 9 10 0 27 7 38 15 12 9 39 14 74 13 l55 -1 -59 -6z m-386 -28 c7 -6 -342 0 -375 7 -16 3 60 4 170 2 110 -2 202 -6 205 -9z m183 0 c-29 -2 -78 -2 -110 0 -32 2 -8 3 52 3 61 0 87 -1 58 -3z m1004 -193 c0 -69 -4 -134 -8 -145 -4 -11 -7 56 -7 150 0 97 3 159 8 145 4 -14 7 -81 7 -150z m-1362 140 c3 -6 -1 -7 -9 -4 -18 7 -21 14 -7 14 6 0 13 -4 16 -10z m380 0 c-3 -5 -12 -10 -18 -10 -7 0 -6 4 3 10 19 12 23 12 15 0z"/> <path d="M360 2690 c0 -5 9 -10 20 -10 11 0 20 5 20 10 0 6 -9 10 -20 10 -11 0 -20 -4 -20 -10z"/> <path d="M413 2693 c8 -7 119 -5 126 3 2 2 -26 4 -64 4 -38 0 -65 -3 -62 -7z"/> <path d="M667 2673 c-2 -4 -10 -42 -17 -83 -18 -105 -2 -350 22 -350 6 0 7 10 4 23 -14 46 -18 263 -7 336 11 68 10 94 -2 74z"/> <path d="M1876 2519 c-65 -51 -148 -292 -191 -549 -18 -110 -32 -349 -19 -337 4 4 11 58 14 120 9 148 41 357 56 357 8 0 8 -16 -2 -59 -17 -73 -44 -298 -44 -367 0 -48 2 -52 28 -59 15 -3 36 -15 47 -25 20 -18 20 -18 21 63 1 111 38 352 69 461 23 78 24 95 15 140 -6 28 -14 76 -18 106 l-8 55 -23 -60 c-12 -33 -34 -100 -48 -150 -27 -93 -30 -101 -38 -94 -6 7 51 201 77 261 11 26 24 48 29 48 5 0 9 8 9 18 0 27 29 63 64 78 25 10 27 13 10 14 -12 0 -33 -9 -48 -21z m-43 -326 c-7 -2 -19 -2 -25 0 -7 3 -2 5 12 5 14 0 19 -2 13 -5z m-15 -90 c-10 -2 -28 -2 -40 0 -13 2 -5 4 17 4 22 1 32 -1 23 -4z m-65 -370 c-7 -2 -21 -2 -30 0 -10 3 -4 5 12 5 17 0 24 -2 18 -5z m7 -63 c0 -5 -13 -10 -30 -10 -16 0 -30 5 -30 10 0 6 14 10 30 10 17 0 30 -4 30 -10z"/> <path d="M1945 2528 c-16 -6 -41 -20 -53 -32 -20 -17 -23 -28 -18 -61 13 -97 111 -281 144 -271 9 2 33 7 52 11 26 5 31 3 20 -4 -8 -6 -24 -11 -35 -11 -47 -1 -46 -15 6 -76 l51 -59 -66 68 c-36 37 -80 92 -97 122 -17 31 -34 54 -37 51 -19 -20 174 -256 197 -242 12 8 103 -59 93 -68 -3 -4 2 -4 12 0 13 5 17 4 12 -4 -5 -8 -1 -10 10 -5 12 4 15 3 10 -5 -5 -8 -1 -10 10 -5 12 4 15 3 10 -5 -5 -8 -1 -10 10 -5 11 4 15 3 11 -4 -5 -7 1 -9 15 -5 16 4 19 2 13 -8 -5 -8 -4 -11 2 -7 6 4 25 2 44 -4 50 -14 151 -19 173 -7 15 8 18 19 14 71 -4 68 -41 158 -103 252 -42 62 -170 195 -188 195 -7 0 6 -16 29 -35 58 -48 146 -159 187 -235 63 -116 82 -228 41 -244 -11 -4 -11 -1 2 19 43 66 -56 273 -203 422 -37 37 -68 72 -68 78 0 14 -67 56 -82 51 -7 -3 -12 -1 -10 5 3 12 -95 55 -143 63 -19 3 -48 0 -65 -6z m105 -298 c-8 -5 -26 -9 -40 -9 l-25 1 25 8 c14 4 32 8 40 9 13 1 13 0 0 -9z"/> <path d="M1878 2279 c3 -28 7 -37 13 -28 12 19 11 32 -4 53 -11 15 -12 11 -9 -25z"/> <path d="M1907 2183 c-25 -44 -77 -284 -80 -367 -1 -31 -5 -56 -9 -56 -5 0 -8 -31 -8 -70 0 -38 4 -70 9 -70 5 0 20 15 33 33 33 44 126 198 130 217 2 8 5 17 8 20 14 12 58 97 61 116 3 14 -12 38 -44 74 -26 29 -55 66 -64 81 -17 29 -28 35 -36 22z"/> <path d="M705 2070 c24 -114 195 -460 228 -460 5 0 3 10 -5 23 -77 119 -151 269 -188 382 -25 78 -47 111 -35 55z"/> <path d="M893 2082 c-16 -2 -23 -10 -23 -26 0 -31 45 -138 54 -129 4 4 4 0 0 -10 -3 -9 -1 -17 5 -17 6 0 8 -6 5 -13 -2 -7 4 -22 16 -32 11 -10 20 -28 20 -39 0 -12 9 -32 20 -46 11 -14 20 -31 20 -37 0 -7 5 -13 10 -13 6 0 10 -9 10 -20 0 -11 3 -20 8 -20 4 0 13 -13 20 -30 11 -23 20 -30 43 -30 27 0 29 2 29 40 0 22 -4 40 -10 40 -5 0 -10 5 -10 11 0 5 5 7 10 4 12 -8 13 27 1 41 -5 5 -11 52 -15 104 -11 186 -15 207 -46 220 -24 10 -103 11 -167 2z"/> <path d="M1122 1995 c0 -16 2 -22 5 -12 2 9 2 23 0 30 -3 6 -5 -1 -5 -18z"/> <path d="M1132 1920 c0 -19 2 -27 5 -17 2 9 2 25 0 35 -3 9 -5 1 -5 -18z"/> <path d="M1143 1830 c0 -30 2 -43 4 -27 2 15 2 39 0 55 -2 15 -4 2 -4 -28z"/> <path d="M936 1438 c-64 -65 -141 -179 -134 -200 2 -6 22 20 43 58 21 38 68 99 105 137 36 37 62 67 57 67 -5 0 -37 -28 -71 -62z"/> <path d="M846 2561 c-36 -39 -46 -185 -23 -331 13 -82 11 -80 95 -86 30 -2 62 -6 73 -9 30 -10 59 4 60 28 0 21 1 21 10 2 7 -15 8 -12 4 15 -3 19 -10 37 -15 38 -6 2 -8 8 -5 13 10 15 -6 79 -18 72 -6 -3 -7 -1 -3 6 15 24 -63 219 -101 251 -27 23 -57 23 -77 1z"/> <path d="M1016 2438 c19 -61 43 -122 43 -112 1 14 -40 134 -46 134 -2 0 -1 -10 3 -22z"/> <path d="M1061 2305 c0 -5 8 -46 19 -90 14 -56 18 -66 14 -33 -5 46 -31 144 -33 123z"/> <path d="M2065 1331 c14 -29 35 -49 35 -36 0 13 -34 65 -42 65 -5 0 -2 -13 7 -29z"/> <path d="M2198 1233 c6 -2 18 -2 25 0 6 3 1 5 -13 5 -14 0 -19 -2 -12 -5z"/> <path d="M1030 1260 c0 -5 11 -35 25 -66 34 -76 32 -93 -15 -139 -37 -36 -40 -44 -40 -91 0 -42 5 -59 26 -83 32 -38 47 -38 103 -1 46 32 55 31 110 -11 32 -25 102 -25 124 -1 42 46 -1 181 -66 205 -37 14 -41 49 -13 115 14 34 26 66 26 72 0 18 -32 11 -87 -20 -65 -37 -78 -37 -127 0 -40 30 -66 38 -66 20z"/> <path d="M1620 1260 c0 -5 11 -35 25 -66 14 -31 25 -64 25 -73 0 -9 -23 -37 -52 -62 -48 -43 -52 -50 -58 -102 -8 -70 0 -92 40 -105 35 -13 59 -6 120 34 l41 27 46 -32 c33 -23 52 -31 69 -27 27 7 64 71 64 112 0 29 -35 94 -51 94 -5 0 -17 15 -25 34 -16 32 -16 36 10 91 42 93 36 103 -35 55 -24 -16 -51 -30 -59 -30 -8 0 -39 14 -69 30 -55 30 -91 38 -91 20z"/> <path d="M762 1149 c-5 -13 -13 -44 -17 -68 -10 -63 9 -44 24 24 13 58 8 86 -7 44z"/> <path d="M2168 1103 c17 -63 20 -69 27 -62 2 3 -2 29 -10 57 l-13 53 43 -6 c27 -5 45 -3 49 4 5 8 -12 11 -52 11 l-59 0 15 -57z"/> <path d="M740 861 c0 -58 19 -138 46 -196 27 -56 25 -33 -5 68 -11 38 -21 89 -22 113 -3 57 -19 69 -19 15z"/> <path d="M1894 682 c-60 -51 -79 -63 -140 -82 -97 -30 -215 -43 -342 -38 -133 5 -212 28 -329 94 -87 50 -84 49 -77 27 20 -56 98 -99 243 -135 129 -32 358 -32 456 0 79 26 165 81 203 130 30 39 27 40 -14 4z"/> <path d="M1050 346 c0 -2 7 -7 16 -10 8 -3 12 -2 9 4 -6 10 -25 14 -25 6z"/> <path d="M1760 370 c-9 -6 -10 -10 -3 -10 6 0 15 5 18 10 8 12 4 12 -15 0z"/> <path d="M1708 343 c7 -3 16 -2 19 1 4 3 -2 6 -13 5 -11 0 -14 -3 -6 -6z"/> <path d="M1428 313 c6 -2 18 -2 25 0 6 3 1 5 -13 5 -14 0 -19 -2 -12 -5z"/> <path d="M1498 313 c12 -2 30 -2 40 0 9 3 -1 5 -23 4 -22 0 -30 -2 -17 -4z"/> </g> </svg> 
