      <svg xmlns="http://www.w3.org/2000/svg" xmlns:xlink="http://www.w3.org/1999/xlink" id="erxB6Mhm7Os1" viewBox="0 0 400 300" shape-rendering="geometricPrecision" text-rendering="geometricPrecision" project-id="a3b27fba3a5d4357b602655b7cf5f10f" export-id="7fcc456b3ab64b939e705e1b3583cb1f" cached="false"><path d="M51.04819,95.91371c1.60545-14.44904,3.87168-28.7068,6.25909-43.03126c0,0,1.56477-7.82386,1.56477-7.82386c6.89651.98522,12.11779,20.05095,20.34205,17.99489c2.6458-.66145,17.99182-21.1275,20.34205-18.77728c8.44808,8.44808,6.25909,32.19401,6.25909,43.03126" fill="none" stroke="#3f5787" stroke-width="3.8"/><path d="M124.59252,71.65973c0,35.70673,24.25398,34.46094,24.25398,2.34716" transform="translate(0 0.000001)" fill="none" stroke="#3f5787" stroke-width="3.8"/><path d="M166.059,96.6961c-.89451-9.83956-6.77737-28.26673,7.82386-30.51307c15.28799-2.352,5.62516,17.49576-8.60625,20.34205" transform="translate(.000001 0.000001)" fill="none" stroke="#3f5787" stroke-width="3.8"/><path d="M182.48912,96.6961c-4.87849-4.87849-7.73871-7.2198-10.17102-13.30057" fill="none" stroke="#3f5787" stroke-width="3.8"/><path d="M193.44253,95.91371c2.43895-31.70638,27.38353-36.60792,27.38353-2.34716" fill="none" stroke="#3f5787" stroke-width="3.8"/><path d="M240.38572,71.65973c-17.44091,23.25454-7.14349,27.38353,13.30057,27.38353" fill="none" stroke="#3f5787" stroke-width="3.8"/><path d="M270.1164,96.6961c0-8.37237.40272-16.74061-.78239-25.03637" fill="none" stroke="#3f5787" stroke-width="3.8"/><path d="M73.7374,134.25065c1.04318,2.86875,2.05773,5.74808,3.12955,8.60625c4.00231,10.67283,7.64875,21.45152,11.7358,32.07784.59211,1.53947-.0424,5.0652,1.56477,4.69432c13.86093-3.19868,23.37513-36.53101,28.16591-48.50796" fill="none" stroke="#3f5787" stroke-width="3.8"/><path d="M125.37491,177.2819c1.00183-9.01646,1.56477-18.32142,1.56477-27.38353" fill="none" stroke="#3f5787" stroke-width="3.8"/><path d="M148.06411,147.55122c-8.18841,0-13.57879-.1043-21.12443,3.12955" fill="none" stroke="#3f5787" stroke-width="3.8"/><path d="M144.93457,162.41656c-6.4987,0-13.1156.64419-19.55966,1.56477" fill="none" stroke="#3f5787" stroke-width="3.8"/><path d="M147.28173,174.93474c-7.02262,0-13.65295-.66493-20.34205,1.56477" transform="translate(0 0.000001)" fill="none" stroke="#3f5787" stroke-width="3.8"/><path d="M160.5823,175.71713c-.38699-2.70894-3.2876-24.14861-.78239-25.81875c6.87111-4.58074,25.31542,38.19997,27.38353,22.68921.31212-2.34089.63507-4.68447.78239-7.04148.21148-3.38374,0-6.78068,0-10.17102" transform="translate(0 0.000001)" fill="none" stroke="#3f5787" stroke-width="3.8"/><path d="M201.26639,181.97622c-.42176-7.59172-1.40407-15.14449-2.34716-22.68921-.16174-1.29391-1.30398-3.91193,0-3.91193c5.67051,0,17.19489,28.48541,20.34205,17.99489c1.55086-5.16955.78239-11.13706.78239-16.43012" transform="translate(.000001 0)" fill="none" stroke="#3f5787" stroke-width="3.8"/><path d="M231.77947,176.49952c5.58555-27.92776,8.21675-25.81537,20.34205-1.56477" fill="none" stroke="#3f5787" stroke-width="3.8"/><path d="M266.20447,182.75861c.42041-4.20414-3.41579-30.42038,0-32.86023c10.60552-7.57537,26.8226,12.47389,10.95341,15.64773-4.69044.93809-8.0032.78239-12.51818.78239" transform="translate(.000001 0)" fill="none" stroke="#3f5787" stroke-width="3.8"/><path d="M289.67606,157.72224c0,26.76326,18.77727,29.38942,18.77727.78239" fill="none" stroke="#3f5787" stroke-width="3.8"/><path d="M328.013,155.37508c-4.59205-2.29602-5.55849-4.40671-10.17102.78239-9.87203,11.10604,24.52292,7.21876,17.99489,21.90682-2.8921,6.50723-18.77727,5.09892-18.77727-2.34716" transform="translate(.000001 0)" fill="none" stroke="#3f5787" stroke-width="3.8"/><path d="M349.13743,175.71713c7.88598-34.17259,13.2634-25.14787,21.90682.78239" transform="translate(0 0.000001)" fill="none" stroke="#3f5787" stroke-width="3.8"/></svg>
